<?xml version="1.0" encoding="UTF-8"?>
<svg width="240px" height="240px" viewBox="0 0 240 240" version="1.1" xmlns="http://www.w3.org/2000/svg" xmlns:xlink="http://www.w3.org/1999/xlink">
    <!-- Generator: Sketch 52.6 (67491) - http://www.bohemiancoding.com/sketch -->
    <title>np_json-file_922242_000000</title>
    <desc>Created with Sketch.</desc>
    <g id="Page-1" stroke="none" stroke-width="1" fill="none" fill-rule="evenodd">
        <g id="ext_icon">
            <g id="np_json-file_922242_000000">
                <polygon id="Path" fill="#1A3553" points="0 0 240 0 240 240 0 240"></polygon>
                <path d="M37,114.590514 C52.0771593,114.590514 54.5896536,106.636969 54.5896536,99.2956731 C54.5896536,93.7894164 53.7615612,87.0592306 52.9048862,81.3311404 C51.8483519,75.6302453 51.2201187,66.2306527 51.2201187,60.7246808 C51.2201187,41.9535452 63.7847836,34 81.6025135,34 L86,34 L86,45.2070094 L82.2307467,45.2070094 C69.8663796,45.4016762 65.6688985,51.5197265 65.6688985,62.7543583 C65.6688985,67.4541546 66.2971098,76.0195219 67.1252242,80.9139565 C67.7534355,85.8083911 68.5815498,91.9266124 68.5815498,97.2382308 C68.7814382,110.503394 62.9275968,117.038088 53.5043906,119.485661 L53.5043906,119.902802 C62.9278892,122.155381 68.7811166,129.080134 68.5815498,142.150232 C68.5815498,147.656489 67.7534574,153.774425 67.1252242,158.66886 C66.2971317,163.757933 65.6688985,171.934023 65.6688985,176.828458 C65.6688985,188.452651 70.4947591,194.375807 82.2307467,194.792991 L86,194.792991 L86,206 L81.6025135,206 C64.4119934,206 51.2201187,198.463639 51.2201187,177.857179 C51.2201187,172.545632 51.8483373,163.368229 52.9048862,157.862257 C53.7329786,152.161362 54.5896536,145.625814 54.5896536,140.119842 C54.5896536,133.584651 52.0767937,125.019355 37,125.019355 L37,114.590514 Z" id="Path" fill="#FFFFFF"></path>
                <path d="M100,204 C104.502447,191.797452 110.039245,170.222201 112.305109,155.385045 L132.216075,153.360564 C127.294175,170.665491 118.261503,193.239636 112.528474,202.806865 L100,204 Z M108.809307,96.8123909 C108.809307,89.2969052 113.926938,84 121.114416,84 C128.301894,84 133,89.2968342 133,96.8123909 C133,103.717749 128.27383,109.430257 120.891051,109.430257 C113.731923,109.402526 108.614579,103.717394 108.810023,96.8123909 L108.809307,96.8123909 Z" id="Shape" fill="#FFFFFF" fill-rule="nonzero"></path>
                <path d="M203.99956,125.15607 C189.06126,125.15607 186.538514,133.734017 186.538514,140.279239 C186.538514,145.793766 187.369985,152.338702 188.230156,158.048303 C189.061627,163.56283 189.921798,172.753662 189.921798,178.073258 C189.921798,198.71067 176.675361,203 159.41543,203 L155,203 L155,195.034508 L158.784633,195.034508 C170.339208,194.616741 175.414061,188.712309 175.414061,177.042992 C175.414061,172.141206 174.58259,163.981069 173.951793,158.856117 C173.120322,153.954331 172.260151,147.82692 172.260151,142.312678 C172.059447,129.250754 178.137849,122.287723 187.599212,120.031831 L187.599212,119.614064 C178.137262,117.163171 172.03041,110.618306 172.260151,97.3332172 C172.260151,92.0136918 173.091622,85.8862095 173.951793,80.9844232 C174.582575,76.082637 175.414061,67.5046893 175.414061,62.7975485 C175.414061,51.5737058 170.998631,45.4184882 158.784633,45.2238428 L155,45.2238428 L155,34 L159.214755,34 C177.306304,34 189.922238,41.9654918 189.922238,60.7648223 C189.922238,66.2793497 189.090767,75.6648265 188.230596,81.4022336 C187.399125,87.1116917 186.538954,93.8517012 186.538954,99.3937499 C186.538954,106.746073 189.062068,114.711564 204,114.711564 L203.99956,125.15607 Z" id="Path" fill="#FFFFFF"></path>
            </g>
        </g>
    </g>
</svg>